<svg width="40" height="35" viewBox="0 0 40 35" fill="none" xmlns="http://www.w3.org/2000/svg">
<path d="M37.5 15.0018H7.85L16.925 4.10276C17.3493 3.59227 17.5535 2.93412 17.4926 2.27312C17.4316 1.61211 17.1105 1.00239 16.6 0.578079C16.0895 0.15377 15.4313 -0.0503661 14.7702 0.0105778C14.1091 0.0715217 13.4993 0.392554 13.075 0.90305L0.575 15.9017C0.490902 16.021 0.415698 16.1463 0.35 16.2767C0.35 16.4017 0.35 16.4767 0.175 16.6016C0.0616841 16.8883 0.0023528 17.1934 0 17.5016C0.0023528 17.8098 0.0616841 18.1149 0.175 18.4015C0.175 18.5265 0.175 18.6015 0.35 18.7265C0.415698 18.8568 0.490902 18.9821 0.575 19.1014L13.075 34.1001C13.3101 34.3823 13.6044 34.6092 13.9371 34.7647C14.2698 34.9203 14.6327 35.0006 15 35C15.5841 35.0011 16.1502 34.7977 16.6 34.425C16.8531 34.2152 17.0624 33.9575 17.2158 33.6666C17.3692 33.3758 17.4637 33.0575 17.4938 32.7301C17.524 32.4027 17.4893 32.0726 17.3917 31.7586C17.2941 31.4446 17.1355 31.153 16.925 30.9004L7.85 20.0013H37.5C38.163 20.0013 38.7989 19.738 39.2678 19.2692C39.7366 18.8004 40 18.1645 40 17.5016C40 16.8386 39.7366 16.2028 39.2678 15.734C38.7989 15.2652 38.163 15.0018 37.5 15.0018Z" fill="#B0AEAE"/>
</svg>
