<svg width="29" height="29" viewBox="0 0 29 29" fill="none" xmlns="http://www.w3.org/2000/svg">
<path d="M2.35135 0C1.05273 0 0 1.05274 0 2.35135V8.22973C0 9.52834 1.05273 10.5811 2.35135 10.5811H11.3649C12.6635 10.5811 13.7162 9.52834 13.7162 8.22973V2.35135C13.7162 1.05274 12.6635 0 11.3649 0H2.35135Z" fill="url(#paint0_linear)"/>
<path d="M26.6486 29C27.9473 29 29 27.9473 29 26.6486V20.7703C29 19.4717 27.9473 18.4189 26.6486 18.4189H17.6351C16.3365 18.4189 15.2838 19.4717 15.2838 20.7703V26.6486C15.2838 27.9473 16.3365 29 17.6351 29H26.6486Z" fill="url(#paint1_linear)"/>
<path d="M0 14.5C0 13.2014 1.05273 12.1486 2.35135 12.1486H11.3649C12.6635 12.1486 13.7162 13.2014 13.7162 14.5V26.6486C13.7162 27.9473 12.6635 29 11.3649 29H2.35135C1.05273 29 0 27.9473 0 26.6486V14.5Z" fill="url(#paint2_linear)"/>
<path d="M26.6486 16.8514C27.9473 16.8514 29 15.7986 29 14.5V2.35135C29 1.05274 27.9473 0 26.6486 0H17.6351C16.3365 0 15.2838 1.05274 15.2838 2.35135V14.5C15.2838 15.7986 16.3365 16.8514 17.6351 16.8514H26.6486Z" fill="url(#paint3_linear)"/>
<defs>
<linearGradient id="paint0_linear" x1="30.7828" y1="29" x2="3.01093" y2="29" gradientUnits="userSpaceOnUse">
<stop stop-color="#A25DB6"/>
<stop offset="1" stop-color="#355DB4"/>
</linearGradient>
<linearGradient id="paint1_linear" x1="30.7828" y1="29" x2="3.01093" y2="29" gradientUnits="userSpaceOnUse">
<stop stop-color="#A25DB6"/>
<stop offset="1" stop-color="#355DB4"/>
</linearGradient>
<linearGradient id="paint2_linear" x1="30.7828" y1="29" x2="3.01093" y2="29" gradientUnits="userSpaceOnUse">
<stop stop-color="#A25DB6"/>
<stop offset="1" stop-color="#355DB4"/>
</linearGradient>
<linearGradient id="paint3_linear" x1="30.7828" y1="29" x2="3.01093" y2="29" gradientUnits="userSpaceOnUse">
<stop stop-color="#A25DB6"/>
<stop offset="1" stop-color="#355DB4"/>
</linearGradient>
</defs>
</svg>
