<svg width="49" height="52" viewBox="0 0 49 52" fill="none" xmlns="http://www.w3.org/2000/svg">
<path d="M47.1154 24H26.3852V2C26.3852 1.46957 26.1866 0.96086 25.8332 0.585787C25.4798 0.210714 25.0004 0 24.5006 0C24.0008 0 23.5215 0.210714 23.168 0.585787C22.8146 0.96086 22.616 1.46957 22.616 2V24H1.8858C1.38598 24 0.906637 24.2107 0.553212 24.5858C0.199787 24.9609 0.00123492 25.4696 0.00123492 26C-0.00806472 26.2599 0.0352453 26.519 0.128246 26.7596C0.221246 27.0003 0.361776 27.217 0.540366 27.3952C0.718955 27.5733 0.931455 27.7088 1.16354 27.7924C1.39563 27.876 1.64192 27.9059 1.8858 27.88H22.616V50C22.616 50.5304 22.8146 51.0391 23.168 51.4142C23.5215 51.7893 24.0008 52 24.5006 52C25.0004 52 25.4798 51.7893 25.8332 51.4142C26.1866 51.0391 26.3852 50.5304 26.3852 50V28H47.1154C47.6152 28 48.0946 27.7893 48.448 27.4142C48.8014 27.0391 49 26.5304 49 26C49 25.4696 48.8014 24.9609 48.448 24.5858C48.0946 24.2107 47.6152 24 47.1154 24Z" fill="white"/>
</svg>
